<?xml version="1.0" encoding="UTF-8" standalone="no"?>
<!-- Created with Inkscape (http://www.inkscape.org/) -->

<svg
   version="1.1"
   id="svg2"
   width="834.12494"
   height="740.96857"
   viewBox="0 0 834.12492 740.96855"
   sodipodi:docname="PyProphet_Logo_paths.svg"
   inkscape:version="1.1.2 (0a00cf5339, 2022-02-04)"
   xmlns:inkscape="http://www.inkscape.org/namespaces/inkscape"
   xmlns:sodipodi="http://sodipodi.sourceforge.net/DTD/sodipodi-0.dtd"
   xmlns="http://www.w3.org/2000/svg"
   xmlns:svg="http://www.w3.org/2000/svg">
  <defs
     id="defs6" />
  <sodipodi:namedview
     id="namedview4"
     pagecolor="#ffffff"
     bordercolor="#666666"
     borderopacity="1.0"
     inkscape:pageshadow="2"
     inkscape:pageopacity="0.0"
     inkscape:pagecheckerboard="0"
     showgrid="false"
     inkscape:zoom="0.65826413"
     inkscape:cx="430.67819"
     inkscape:cy="439.0335"
     inkscape:window-width="2544"
     inkscape:window-height="1327"
     inkscape:window-x="4008"
     inkscape:window-y="507"
     inkscape:window-maximized="0"
     inkscape:current-layer="layer2"
     fit-margin-top="0"
     fit-margin-left="0"
     fit-margin-right="0"
     fit-margin-bottom="0" />
  <g
     inkscape:groupmode="layer"
     id="layer2"
     inkscape:label="background"
     transform="translate(-139.31683,-128.23474)">
    <rect
       style="opacity:1;fill:#0b0600;fill-opacity:1;fill-rule:evenodd;stroke:#e5e5e5;stroke-width:4.27426;stroke-miterlimit:1.41421"
       id="rect8265"
       width="829.85071"
       height="736.69434"
       x="141.45396"
       y="130.37187" />
  </g>
  <g
     inkscape:groupmode="layer"
     id="layer1"
     inkscape:label="Image 1"
     style="display:inline"
     transform="translate(-139.31683,-128.23474)">
    <path
       style="fill:#ec8e13;stroke-width:1.06667"
       d="m 206.66667,592.98124 c -2.16053,-1.25838 -2.48387,-5.56627 -0.53333,-7.10554 0.73333,-0.57872 6.13333,-1.33511 12,-1.68087 25.12956,-1.48102 43.72944,-13.02103 60.10806,-37.2931 12.88145,-19.08948 21.40108,-40.26644 34.85389,-86.63505 4.01197,-13.82832 15.11062,-63.04975 23.45034,-104 15.62167,-76.70656 21.85553,-105.37882 29.96762,-137.83402 13.88645,-55.55765 22.70599,-72.3291 38.15823,-72.5627 13.74418,-0.20778 23.20618,14.32689 42.18234,64.79671 22.07479,58.71109 28.22502,73.97638 36.95842,91.73334 11.61616,23.61829 19.37605,32.79852 30.17457,35.69761 6.0795,1.63216 11.62847,0.65649 21.61412,-3.80039 10.11455,-4.51441 18.45527,-4.91942 26.27738,-1.27598 7.69113,3.58244 19.5549,16.37957 35.96885,38.79865 26.33569,35.97073 41.96548,54.38813 56.40306,66.46269 6.40459,5.35636 8.1498,7.42354 8.1498,9.65334 0,3.2541 -1.74097,5.39742 -4.38421,5.39742 -6.15652,0 -36.56434,-31.53929 -55.11216,-57.16288 -40.47541,-55.91624 -45.77841,-59.8257 -67.70206,-49.91109 -11.65282,5.2698 -22.07261,6.13666 -30.44916,2.53317 -7.34245,-3.15863 -16.49349,-13.00485 -23.42608,-25.20567 -8.24759,-14.51515 -21.23727,-45.08899 -32.7938,-77.18687 -18.42501,-51.17481 -29.18858,-73.84966 -37.84878,-79.73334 -4.60524,-3.12876 -7.63753,-3.03042 -11.68951,0.3791 -12.22103,10.28332 -21.49712,43.44424 -48.60414,173.75424 -14.0221,67.40765 -20.4295,95.31205 -28.30351,123.26263 -9.45359,33.55765 -15.83322,50.95217 -26.77507,73.00404 -4.31078,8.68782 -5.4801,11.77196 -3.63974,9.6 7.63285,-9.00814 14.76485,-21.99746 21.7908,-39.68705 11.42936,-28.77621 19.06428,-58.50202 37.47697,-145.91295 13.57247,-64.43284 19.93057,-88.52134 27.60612,-104.5894 9.73631,-20.38208 19.71993,-27.36118 31.88858,-22.29185 12.07307,5.0295 21.86404,20.96432 45.51834,74.08125 28.64136,64.3156 40.76552,76.12696 72.7567,70.87964 13.56362,-2.22476 20.73483,-1.71952 28.32886,1.99589 6.9466,3.39864 19.16259,14.00412 29.70775,25.79114 20.71098,23.15007 42.39811,43.52275 59.82003,56.19439 7.73309,5.62456 9.08508,8.53555 5.58834,12.0323 -2.26353,2.26352 -4.69491,1.42703 -13.22094,-4.54856 -13.00241,-9.11291 -22.99295,-18.13191 -45.90784,-41.4435 -26.40689,-26.86404 -32.53842,-32.31391 -40.55295,-36.04458 -6.40641,-2.98209 -13.21397,-3.39562 -27.67254,-1.681 -16.48602,1.95505 -30.59551,-1.99171 -40.63927,-11.36779 -10.55312,-9.85156 -18.37895,-23.34284 -36.70341,-63.2746 -22.67155,-49.40467 -29.3248,-60.67796 -38.40508,-65.07366 -4.08679,-1.97836 -5.27437,-2.13047 -8.45033,-1.08231 -12.47408,4.11682 -20.62035,26.55348 -37.38109,102.95597 -12.82309,58.45301 -19.89178,89.20559 -23.6312,102.80835 -2.03485,7.40208 -4.66252,17.03238 -5.83927,21.40067 -2.40675,8.93422 -6.06783,18.7424 -14.55407,38.99099 -7.59848,18.13034 -7.49029,17.75909 -3.67889,12.62436 6.7017,-9.02856 16.88991,-32.04648 24.7397,-55.89371 5.56292,-16.89984 6.50312,-20.3765 19.74084,-72.99732 6.05105,-24.05334 13.00414,-49.49334 15.4513,-56.53334 10.4535,-30.07264 21.05405,-41.91657 34.03522,-38.02731 9.84095,2.94842 18.5313,14.71896 35.1639,47.62731 22.15969,43.84395 33.32495,58.4816 48.68498,63.82598 2.55376,0.88855 11.76063,1.79752 22.93333,2.26413 13.68907,0.57171 20.1563,1.29859 24.253,2.72587 10.80833,3.76563 21.45908,11.40875 41.347,29.67116 12.38387,11.37169 33.40569,27.84373 46.13334,36.14865 9.46278,6.17455 12,8.34187 12,10.2505 0,3.16078 -1.91154,4.98038 -5.23201,4.98038 -5.70952,0 -24.88774,-13.80744 -59.5147,-42.84786 -30.53571,-25.60924 -34.21212,-27.31684 -61.65329,-28.63655 -10.56,-0.50784 -20.64,-1.38395 -22.40001,-1.94692 -19.22323,-6.14882 -30.57407,-19.86748 -52.32618,-63.24159 -14.1682,-28.25162 -22.32501,-40.4486 -28.88264,-43.18856 -5.36221,-2.24048 -7.46643,-1.81992 -12.17403,2.4331 -8.53344,7.70946 -15.1596,25.67855 -27.66694,75.02838 -12.92238,50.98745 -18.92284,71.17035 -27.78671,93.46231 -21.63216,54.40325 -50.31078,86.42198 -85.29684,95.23116 -15.72065,3.95831 -45.83039,5.88265 -50.4,3.22109 z"
       id="path3513" />
    <path
       style="fill:#ec8e13;stroke-width:1.06667"
       d="m 885.37089,645.40348 c -0.72214,-1.34934 -1.1042,-22.04148 -1.1042,-59.80346 0,-37.76199 0.38206,-58.45413 1.1042,-59.80346 0.96513,-1.80336 2.30379,-2.06321 10.62914,-2.06321 8.32534,0 9.66401,0.25985 10.62914,2.06321 0.72213,1.34933 1.10419,22.04147 1.10419,59.80346 0,37.76198 -0.38206,58.45412 -1.10419,59.80346 -0.96513,1.80336 -2.3038,2.06321 -10.62914,2.06321 -8.32535,0 -9.66401,-0.25985 -10.62914,-2.06321 z"
       id="path3511" />
    <path
       style="fill:#ec8e13;stroke-width:1.06667"
       d="m 836.48003,646.18669 c -1.85653,-1.85653 -1.85653,-209.98349 0,-211.84001 0.78685,-0.78686 4.6406,-1.28 10.00273,-1.28 6.81137,0 9.04351,0.38641 10.18666,1.76343 1.2138,1.46212 1.51564,19.34603 1.76652,104.66575 0.26957,91.67274 0.12138,103.17888 -1.35792,105.43658 -1.52669,2.33002 -2.37199,2.53425 -10.48925,2.53425 -5.44458,0 -9.31938,-0.49064 -10.10874,-1.28 z"
       id="path3509" />
    <path
       style="fill:#ec8e13;stroke-width:1.06667"
       d="m 786.17088,645.40339 c -1.69803,-3.17275 -1.52507,-300.02249 0.17581,-301.72338 1.72874,-1.72874 19.17793,-1.72874 20.90667,0 1.86019,1.86019 1.86019,300.64648 0,302.50668 -0.80084,0.80084 -4.77981,1.28 -10.62914,1.28 -8.15153,0 -9.49059,-0.26429 -10.45334,-2.06321 z"
       id="path3507" />
    <path
       style="fill:#ec8e13;stroke-width:1.06667"
       d="m 738.2594,646.01848 c -0.87935,-1.05955 -1.12904,-34.04553 -0.9306,-122.93333 l 0.27122,-121.48514 h 10.66667 10.66667 l 0.27122,121.48522 c 0.19844,88.8878 -0.0512,121.87379 -0.9306,122.93334 -0.83467,1.00571 -3.89197,1.44812 -10.00729,1.44812 -6.11532,0 -9.17262,-0.44241 -10.00729,-1.44812 z"
       id="path3505" />
    <path
       style="fill:#ec8e13;stroke-width:1.06667"
       d="m 932.96535,646.58254 c -1.51542,-1.67443 -1.76532,-4.8907 -1.76532,-22.71991 0,-14.73172 0.37209,-21.14144 1.28,-22.04935 1.72002,-1.72002 18.11998,-1.72002 19.84,0 0.91134,0.91134 1.28,7.50574 1.28,22.89581 0,25.10653 0.61887,23.82419 -11.49789,23.82419 -5.78671,0 -7.751,-0.41936 -9.13679,-1.95065 z"
       id="path3503" />
    <path
       style="fill:#ec8e13;stroke-width:1.06667"
       d="m 689.76534,646.58254 c -1.61225,-1.78144 -1.76532,-9.48961 -1.76532,-88.90126 0,-100.60767 -1.33389,-90.48134 11.91867,-90.48134 6.41242,0 8.37074,0.39049 9.78268,1.95066 1.61212,1.78139 1.76532,9.46412 1.76532,88.53334 0,100.71946 1.31472,90.84934 -12.10135,90.84934 -6.23545,0 -8.19501,-0.39817 -9.6,-1.95065 z"
       id="path3501" />
    <path
       style="fill:#ec8e13;stroke-width:1.06667"
       d="m 642.83201,646.58254 c -1.59523,-1.76261 -1.76532,-7.31937 -1.76532,-57.67004 0,-36.369 0.38346,-56.43599 1.10419,-57.78268 0.96513,-1.80336 2.3038,-2.06321 10.62914,-2.06321 8.32534,0 9.66401,0.25985 10.62914,2.06321 0.72042,1.34612 1.10419,21.28318 1.10419,57.36266 0,48.32396 -0.20945,55.5985 -1.66048,57.67013 -1.4742,2.10472 -2.59244,2.37067 -9.96802,2.37067 -6.69353,0 -8.65049,-0.37897 -10.07284,-1.95065 z"
       id="path3499" />
    <path
       style="fill:#ec8e13;stroke-width:1.06667"
       d="m 598.26395,646.77129 c -1.90104,-2.28799 -2.75711,-59.89191 -0.94051,-63.28625 1.02295,-1.9113 2.21601,-2.15176 10.67658,-2.15176 8.32534,0 9.66401,0.25985 10.62914,2.06321 0.68393,1.27792 1.10419,13.16422 1.10419,31.22933 0,35.4815 0.54143,33.90746 -11.66321,33.90746 -6.45408,0 -8.67359,-0.39878 -9.80619,-1.76191 z"
       id="path3497" />
    <path
       style="fill:#168600;fill-opacity:1;stroke-width:1.06667"
       d="m 553.14288,646.85709 c -1.44173,-1.44169 -1.6762,-5.73872 -1.6762,-30.71996 0,-21.1674 0.34713,-29.39093 1.28,-30.32381 2.00066,-2.00066 17.35992,-1.6877 19.44381,0.39619 1.4406,1.4406 1.67619,5.70274 1.67619,30.32381 0,24.62107 -0.23559,28.88321 -1.67619,30.32381 -1.22003,1.22003 -3.81183,1.67619 -9.52381,1.67619 -5.71198,0 -8.30377,-0.45616 -9.5238,-1.67619 z"
       id="path3495" />
    <path
       style="fill:#168600;fill-opacity:1;stroke-width:1.06667"
       d="m 507.31744,646.89839 c -1.54571,-1.54572 -1.71742,-9.10045 -1.71742,-75.56124 0,-56.01185 0.30909,-74.15291 1.28,-75.12381 0.78852,-0.78852 4.65619,-1.28 10.07285,-1.28 7.82991,0 8.9715,0.25506 10.42415,2.32901 1.42418,2.0333 1.63346,11.41231 1.64822,73.86667 0.0131,55.58905 -0.28388,72.13216 -1.33227,74.20432 -1.24949,2.46964 -1.98866,2.68942 -10.00363,2.97457 -6.82872,0.24296 -9.01677,-0.0544 -10.3719,-1.40952 z"
       id="path3493" />
    <path
       style="fill:#168600;fill-opacity:1;stroke-width:1.06667"
       d="m 457.12716,646.16267 c -1.46972,-2.09832 -1.66048,-12.30614 -1.66048,-88.85334 0,-65.84207 0.30549,-86.78815 1.28,-87.76266 0.80991,-0.80991 4.8813,-1.28 11.08588,-1.28 7.95768,0 9.92791,0.31801 10.45333,1.68724 0.35611,0.92798 0.64746,40.7337 0.64746,88.45715 0,77.45951 -0.17985,86.94976 -1.67619,88.44609 -1.2399,1.23989 -3.86174,1.67619 -10.07285,1.67619 -7.46768,0 -8.58037,-0.26228 -10.05715,-2.37067 z"
       id="path3491" />
    <path
       style="fill:#168600;fill-opacity:1;stroke-width:1.06667"
       d="m 411.73335,647.19789 -2.66667,-1.39391 -0.27869,-57.56865 c -0.25742,-53.17386 -0.14007,-57.67045 1.53721,-58.90199 2.55783,-1.87811 16.43488,-1.7468 19.07094,0.18046 2.00497,1.46585 2.07054,3.32204 2.07054,58.61299 0,36.67986 -0.38145,57.46136 -1.06667,58.11192 -1.89162,1.79597 -15.70767,2.5059 -18.66666,0.95918 z"
       id="path3489" />
    <path
       style="fill:#168600;fill-opacity:1;stroke-width:1.06667"
       d="m 363.355,647.17859 c -1.68155,-1.22958 -1.84897,-4.0055 -1.81188,-30.04049 0.0487,-34.14664 -0.4837,-32.60475 11.25689,-32.60475 11.72132,0 11.2,-1.49812 11.2,32.18534 0,33.37296 0.55577,31.81466 -11.34678,31.81466 -4.33559,0 -8.21935,-0.56586 -9.29823,-1.35476 z"
       id="path3487" />
    <path
       style="fill:#6c5f42;fill-opacity:1;stroke-width:1.06667"
       d="M 155.36533,646.5827 C 153.73356,644.77961 153.6,626.2623 153.6,401.82021 c 0,-241.72013 0.01,-242.81694 2.13334,-243.95354 1.51364,-0.81008 2.75176,-0.81075 4.26233,-0.002 2.10694,1.12759 2.13181,2.45769 2.4,128.30419 l 0.271,127.16462 10.66667,0.53333 c 11.36589,0.5683 13.33333,1.17569 13.33333,4.11629 0,3.58994 -2.29695,4.41704 -12.26666,4.41704 -6.12741,0 -10.17866,0.47199 -10.98667,1.28 -1.85671,1.85671 -1.85671,213.18331 0,215.04001 0.9744,0.9744 21.82579,1.28 87.33606,1.28 94.17511,0 90.36791,-0.25645 87.56363,5.89825 l -1.20061,2.63508 h -89.99089 c -85.82705,0 -90.07257,-0.0902 -91.7562,-1.95065 z"
       id="path3485" />
    <path
       id="path2023"
       style="fill:#ec8e13;stroke-width:1.06667"
       d="m 257.28001,849.92003 c -0.71578,-0.71578 -1.28,-4.14815 -1.28,-7.78667 0,-3.63852 0.56422,-7.07089 1.28,-7.78667 0.704,-0.704 3.78717,-1.28 6.85149,-1.28 4.44177,0 6.23883,-0.56152 8.86261,-2.76929 3.20866,-2.69991 10.73923,-16.63777 10.73923,-19.87658 0,-0.8921 -1.1972,-4.3291 -2.66046,-7.63778 -1.46325,-3.30868 -6.80622,-16.2084 -11.87325,-28.66606 -5.06704,-12.45766 -11.26329,-27.69029 -13.76946,-33.85029 -3.24732,-7.98173 -4.24234,-11.58313 -3.4628,-12.53333 0.73165,-0.89183 4.36278,-1.33334 10.96597,-1.33334 6.64156,0 10.20654,0.43632 10.89405,1.33334 0.56206,0.73333 3.82813,9.46546 7.25793,19.40472 9.09248,26.34916 12.9242,36.19845 14.25506,36.64207 1.44087,0.48029 1.4605,0.43056 12.34268,-31.24679 l 8.79442,-25.6 10.31316,-0.30552 c 7.65544,-0.22678 10.44902,0.0485 10.84029,1.06813 0.28992,0.75551 -5.51173,16.25299 -12.89254,34.43885 -7.38081,18.18587 -14.82402,36.81158 -16.54047,41.3905 -10.21556,27.25174 -20.63487,41.87891 -32.77896,46.01681 -5.77274,1.96697 -16.32993,2.18692 -18.13895,0.3779 z m 357.24167,-1.24008 c -0.87305,-1.05197 -1.1301,-18.06618 -0.93061,-61.6 l 0.27562,-60.14659 h 9.58952 9.58953 l 0.6031,3.2 c 0.71094,3.77213 1.3959,3.73284 8.00627,-0.45933 13.40543,-8.50147 33.90747,-6.3291 44.04309,4.66675 6.31082,6.84643 8.90319,14.81029 9.52507,29.26143 1.04876,24.3705 -6.34397,40.69086 -21.89899,48.34471 -6.52267,3.20948 -8.00125,3.516 -16.7721,3.47689 -7.80171,-0.0348 -10.4672,-0.48816 -14.10966,-2.4 -7.99715,-4.19748 -7.77583,-4.65561 -7.77583,16.09622 0,12.93036 -0.3831,18.83642 -1.28,19.73333 -1.84982,1.84981 -17.30378,1.70775 -18.86501,-0.17341 z m 49.30628,-53.61428 c 2.80079,-1.8385 4.9913,-4.60124 6.93243,-8.74338 2.55688,-5.45605 2.83793,-7.2701 2.83873,-18.32227 8.2e-4,-11.12178 -0.24721,-12.70005 -2.65739,-16.91009 -2.99022,-5.22322 -8.14617,-8.38409 -15.26831,-9.3603 -5.91535,-0.81078 -14.41588,2.68985 -18.88117,7.77553 l -3.19223,3.63576 v 17.85888 c 0,19.69599 0.38455,21.08951 6.72451,24.36803 8.29595,4.29001 16.6717,4.18233 23.50343,-0.30216 z M 541.0674,814.35188 c -21.58174,-5.81147 -33.54958,-23.7577 -31.97775,-47.95186 1.61796,-24.90411 16.41053,-40.09927 40.69223,-41.7997 19.19373,-1.34412 34.70502,7.00453 41.75101,22.47169 5.60139,12.29597 5.36667,33.05399 -0.51947,45.94239 -3.0585,6.69695 -10.69335,14.84845 -16.92616,18.07157 -8.76692,4.53354 -23.06171,5.9474 -33.01986,3.26591 z m 22.66595,-18.42875 c 5.07563,-2.87392 9.33059,-12.5212 9.90592,-22.45969 1.13739,-19.64764 -5.05892,-30.14772 -18.7475,-31.76892 -4.27659,-0.50651 -6.43136,-0.11779 -11.03628,1.99086 -4.79309,2.19482 -6.23533,3.55878 -8.88296,8.40078 -2.73933,5.0097 -3.21494,7.13179 -3.56667,15.91386 -0.33478,8.35916 -0.0152,11.17011 1.82491,16.05492 2.58836,6.87092 7.98098,12.592 13.0718,13.86801 4.8264,1.20973 13.5249,0.21175 17.43078,-1.99982 z m 273.99314,18.55629 c -12.13119,-2.77082 -20.20215,-8.95812 -25.05838,-19.21007 -4.26005,-8.99336 -5.54133,-16.48452 -4.93571,-28.85733 0.82752,-16.90661 6.24925,-28.09362 17.18064,-35.44994 6.55414,-4.41063 10.91858,-5.69796 21.66981,-6.39169 6.94977,-0.44845 10.19727,-0.11254 16.02466,1.65746 14.88083,4.51992 21.64995,14.70377 22.50802,33.86237 0.74157,16.55767 3.09112,15.28635 -28.87659,15.62488 l -26.90558,0.28492 -0.31023,3.73334 c -0.42738,5.14319 4.55437,12.83897 10.03303,15.49899 6.37931,3.09731 17.4964,3.30205 28.57622,0.52631 10.82728,-2.71248 11.376,-2.49469 14.05793,5.57985 1.78946,5.38757 1.78376,5.45996 -0.58034,7.37429 -6.95015,5.62789 -30.36462,8.74018 -43.38348,5.76662 z m 26.54954,-58.74606 c -0.58362,-9.67635 -5.92267,-14.4 -16.276,-14.4 -8.36617,0 -13.45999,3.12056 -16.72102,10.24359 -4.16175,9.09045 -4.22424,9.05619 15.89772,8.71628 l 17.35663,-0.29321 z m 64.09066,59.22168 c -9.50914,-2.02258 -16.19362,-7.2724 -19.727,-15.49307 -0.93515,-2.1757 -1.55415,-11.53423 -1.93985,-29.32861 l -0.56648,-26.13334 -5.51315,-0.3194 c -3.03224,-0.17567 -6.05624,-0.97376 -6.71999,-1.77354 -0.70338,-0.84752 -1.07334,-4.27405 -0.88684,-8.21393 l 0.31998,-6.75979 6.23462,-0.55428 c 8.64295,-0.76837 9.34478,-2.0423 10.566,-19.17906 l 0.26605,-3.73333 h 8.53333 8.53333 l 0.53334,11.2 0.53333,11.2 11.2,0.53333 11.2,0.53334 v 7.46666 7.46667 l -11.2,0.53333 -11.2,0.53334 -0.28749,23.88879 c -0.32056,26.63764 -0.0782,27.745 6.55212,29.9332 2.02045,0.66681 6.71745,1.06965 10.43778,0.89519 l 6.76426,-0.31718 0.31004,7.56673 c 0.21931,5.35267 -0.10986,7.91521 -1.12495,8.75766 -1.92818,1.60026 -17.28842,2.47353 -22.81843,1.29729 z m -766.81063,-2.42168 c -0.28068,-0.73334 -0.38561,-27.49334 -0.23319,-59.46667 L 161.6,694.93335 h 25.06667 c 23.28009,0 25.6311,0.17727 32.98596,2.48718 6.84762,2.15062 8.80906,3.37754 14.49464,9.06667 7.76866,7.77352 10.43313,14.25908 10.43313,25.39519 0,9.51509 -1.79647,15.48255 -6.56968,21.82302 -8.33513,11.07193 -20.50335,16.1874 -41.21071,17.32485 l -12.8,0.7031 -0.29146,19.65391 c -0.18227,12.29184 -0.73065,20.1831 -1.46394,21.06666 -1.59976,1.9276 -19.95421,1.99806 -20.68855,0.0795 z m 49.06566,-62.06822 c 7.42732,-3.2847 10.54088,-8.66015 10.54088,-18.19845 0,-8.98874 -2.98286,-14.46855 -9.66025,-17.74684 -4.36665,-2.14383 -6.71725,-2.50609 -16.30234,-2.51243 l -11.2,-0.007 -0.29163,19.69902 c -0.1604,10.83445 -0.0286,20.38447 0.29289,21.22226 0.94924,2.47367 19.30218,0.78033 26.62045,-2.45616 z m 139.99211,62.72649 c -0.41093,-0.41094 -0.74715,-26.73116 -0.74715,-58.48939 0,-43.48839 0.31597,-58.05819 1.28,-59.02222 0.91764,-0.91764 7.89467,-1.28 24.64604,-1.28 31.06761,0 38.75569,1.91681 49.07419,12.23532 7.05095,7.05095 9.54667,14.38199 9.08885,26.69802 -0.27368,7.36207 -0.93152,10.76691 -2.82193,14.60566 -3.48139,7.06947 -9.51079,12.86297 -17.40734,16.72626 -8.16044,3.99241 -14.8548,5.4252 -29.72648,6.36232 l -11.2,0.70576 -0.53333,20.8 -0.53334,20.8 -10.18617,0.30271 c -5.6024,0.16649 -10.5224,-0.0335 -10.93334,-0.44444 z m 50.4513,-62.58098 c 8.80848,-4.30278 12.31048,-13.74884 9.14022,-24.65417 -3.13641,-10.78884 -11.53843,-14.92301 -29.00234,-14.27044 l -8.403,0.31398 -0.29163,19.69902 c -0.16039,10.83445 -0.0306,20.37931 0.2885,21.21076 0.94216,2.45527 22.04966,0.73852 28.26825,-2.29915 z m 46.54418,62.42016 c -0.83799,-1.35589 -1.0278,-84.13188 -0.19601,-85.47775 0.41343,-0.66895 4.25306,-1.15304 9.14547,-1.15304 8.99452,0 10.64124,0.97954 10.64124,6.32988 0,2.94861 1.41591,2.77579 5.01172,-0.61173 4.3725,-4.11923 11.06456,-6.7726 18.93465,-7.50752 9.67805,-0.90375 10.57501,0.002 9.63384,9.72619 -0.40083,4.14142 -1.18434,8.00985 -1.74114,8.59652 -0.5568,0.58666 -4.95088,1.07386 -9.76462,1.08265 -9.70473,0.0177 -14.14642,1.78656 -18.22961,7.25963 -2.12151,2.84366 -2.27414,4.63093 -2.77817,32.53333 l -0.53333,29.52439 -9.77969,0.30554 c -5.37883,0.16805 -10.03378,-0.1056 -10.34435,-0.60809 z m 267.56301,-0.45567 c -0.28939,-0.75631 -0.40154,-28.73512 -0.24923,-62.17512 l 0.27693,-60.8 h 9.6 9.6 l 0.28831,22.13334 c 0.15857,12.17333 0.71034,22.13333 1.22615,22.13333 0.5158,0 3.35047,-1.62358 6.29925,-3.60797 14.23982,-9.58269 35.70444,-7.04802 44.10324,5.20797 4.75128,6.93331 5.30349,12.11458 4.94521,46.4 l -0.32882,31.46667 h -10.13334 -10.13333 l -0.53333,-30.44986 c -0.60257,-34.40258 -0.66815,-34.68622 -8.88316,-38.4161 -7.98364,-3.62483 -16.13205,-1.98855 -22.30028,4.47812 l -3.98343,4.17617 -0.28324,30.10583 -0.28323,30.10584 -9.35077,0.30845 c -6.87901,0.22691 -9.48987,-0.055 -9.87693,-1.06667 z" />
    <path
       style="display:inline;opacity:1;fill:#168600;fill-opacity:1;stroke-width:0.709769"
       d="m 598.26395,647.85343 c -1.44173,-0.63833 -1.6762,-2.5409 -1.6762,-13.60168 0,-9.37215 0.34713,-13.01324 1.28,-13.42628 2.00066,-0.88582 17.35992,-0.74725 19.44381,0.17542 1.4406,0.63784 1.67619,2.52496 1.67619,13.42628 0,10.90131 -0.23559,12.78843 -1.67619,13.42628 -1.22003,0.54018 -3.81183,0.74215 -9.52381,0.74215 -5.71198,0 -8.30377,-0.20197 -9.5238,-0.74215 z"
       id="path3495-7" />
    <path
       style="display:inline;fill:#168600;fill-opacity:1;stroke-width:0.588766"
       d="m 327.11242,648.76496 c -1.44173,-0.43923 -1.6762,-1.74839 -1.6762,-9.3593 0,-6.44896 0.34713,-8.9544 1.28,-9.23861 2.00066,-0.60953 17.35992,-0.51418 19.44381,0.12071 1.4406,0.4389 1.67619,1.73742 1.67619,9.23861 0,7.50118 -0.23559,8.7997 -1.67619,9.23861 -1.22003,0.37169 -3.81183,0.51067 -9.52381,0.51067 -5.71198,0 -8.30377,-0.13898 -9.5238,-0.51067 z"
       id="path3495-7-7" />
    <path
       style="display:inline;opacity:1;fill:#ec8e13;stroke-width:0.75425"
       d="m 553.14288,648.94074 c -1.90104,-1.144 -2.75711,-29.94596 -0.94051,-31.64313 1.02295,-0.95565 2.21601,-1.07588 10.67658,-1.07588 8.32534,0 9.66401,0.12993 10.62914,1.03161 0.68393,0.63896 1.10419,6.58211 1.10419,15.61466 0,17.74075 0.54143,16.95373 -11.66321,16.95373 -6.45408,0 -8.67359,-0.19939 -9.80619,-0.88095 z"
       id="path3497-6" />
    <path
       style="display:inline;opacity:1;fill:#ec8e13;stroke-width:0.682097"
       d="m 363.355,648.98047 c -1.90104,-0.93559 -2.75711,-24.49064 -0.94051,-25.87863 1.02295,-0.78156 2.21601,-0.87988 10.67658,-0.87988 8.32534,0 9.66401,0.10625 10.62914,0.84367 0.68393,0.52256 1.10419,5.38303 1.10419,12.7701 0,14.50888 0.54143,13.86524 -11.66321,13.86524 -6.45408,0 -8.67359,-0.16307 -9.80619,-0.72047 z"
       id="path3497-6-5" />
    <path
       style="display:inline;opacity:1;fill:#ec8e13;stroke-width:0.405983"
       d="m 327.11242,648.76495 c -1.90104,-0.33145 -2.75711,-8.67608 -0.94051,-9.16779 1.02295,-0.27687 2.21601,-0.31171 10.67658,-0.31171 8.32534,0 9.66401,0.0376 10.62914,0.29888 0.68393,0.18513 1.10419,1.907 1.10419,4.52395 0,5.13993 0.54143,4.91191 -11.66321,4.91191 -6.45408,0 -8.67359,-0.0578 -9.80619,-0.25523 z"
       id="path3497-6-5-6" />
    <path
       style="display:inline;opacity:1;fill:#ec8e13;stroke-width:0.94044"
       d="m 507.31744,647.80974 c -1.90104,-1.77849 -2.75711,-46.55494 -0.94051,-49.19342 1.02295,-1.48568 2.21601,-1.6726 10.67658,-1.6726 8.32534,0 9.66401,0.20199 10.62914,1.60377 0.68393,0.99335 1.10419,10.23276 1.10419,24.27506 0,27.58034 0.54143,26.35681 -11.66321,26.35681 -6.45408,0 -8.67359,-0.30998 -9.80619,-1.36956 z"
       id="path3497-7" />
    <path
       style="display:inline;opacity:1;fill:#ec8e13;stroke-width:0.94259"
       d="m 411.06668,646.10429 c 0,-0.39386 -1.72883,1.23269 -2.04234,-5.08825 -0.64094,-12.9225 -0.3143,-42.26371 1.10183,-44.32992 1.02292,-1.4925 2.21601,-1.68025 10.67658,-1.68025 8.32534,0 9.66401,0.2029 10.62914,1.61109 0.68393,0.99789 1.10419,10.27952 1.10419,24.38598 0,27.70636 0.54143,26.47722 -11.66321,26.47724 -6.45408,10e-6 -9.80619,1.42375 -9.80619,-1.37582 z"
       id="path3497-7-6"
       sodipodi:nodetypes="sssssssss" />
    <path
       style="display:inline;opacity:1;fill:#ec8e13;stroke-width:1.19754"
       d="m 457.12716,567.48353 c -1.90104,2.88381 -2.75711,75.48837 -0.94051,79.76662 1.02295,2.40903 2.21601,2.71211 10.67658,2.71211 8.32534,0 9.66401,-0.32752 10.62914,-2.6005 0.68393,-1.6107 1.10419,-16.59231 1.10419,-39.36175 0,-44.72125 0.54143,-42.7373 -11.66321,-42.7373 -6.45408,0 -8.67359,0.50262 -9.80619,2.22072 z"
       id="path3497-7-3" />
  </g>
</svg>
